<?xml version="1.0" encoding="UTF-8"?><svg id="Layer_1" xmlns="http://www.w3.org/2000/svg" viewBox="0 0 512 512"><defs><style>.cls-1{fill:#fff;}.cls-2{fill:#e23744;}</style></defs><rect class="cls-2" x="56" y="56" width="400" height="400" rx="10" ry="10"/><path class="cls-1" d="M134.59,228.96l-.31,10.1-26.35,28.65c11.01,0,17.99-.11,22.01-.33-1.17,5.44-2.12,9.88-3.07,16.54-5.29-.45-13.55-.56-21.8-.56-9.2,0-17.25,.11-23.71,.56l.22-10.22,26.35-28.53c-11.54,0-15.77,.11-20.53,.22,1.05-5.11,1.8-10.77,2.54-16.43,8.36,.33,11.64,.44,22.54,.44,10.06,0,15.77-.11,22.12-.44h0Zm29.95-3c-17.15,0-30.27,15.32-30.27,33.65,0,13.77,7.94,24.31,23.39,24.31,17.25,0,30.27-15.33,30.27-33.76,0-13.65-7.73-24.2-23.39-24.2h0Zm-5.19,43.24c-3.81,0-6.03-3.45-6.03-10.22,0-10.1,4.13-18.21,9.21-18.21,3.7,0,5.92,3.33,5.92,10.21,0,9.99-4.02,18.21-9.1,18.21Zm247.59-44c-17.37,0-30.66,15.53-30.66,34.08,0,13.95,8.04,24.64,23.69,24.64,17.48,0,30.67-15.53,30.67-34.2,0-13.83-7.82-24.52-23.7-24.52h0Zm-5.58,43.94c-3.81,0-6.03-3.45-6.03-10.22,0-10.1,4.13-18.21,9.21-18.21,3.7,0,5.93,3.33,5.93,10.21,0,10-4.03,18.21-9.11,18.21Zm-124.43-23.19c1.38-9.43,.64-17.99-9.84-17.99-7.62,0-15.88,6.44-21.7,17.21,1.27-8.89,.53-17.21-9.84-17.21-7.83,0-16.3,6.77-22.12,17.99,1.48-7.33,1.17-15.66,.74-17.43-6.03,1-11.32,1.55-18.73,1.78,.21,5.11-.11,11.77-1.06,18.1l-2.43,16.65c-.95,6.55-2.01,14.1-3.07,18.88h19.69c.11-2.89,.85-7.44,1.38-11.44l1.69-11.43c1.37-7.44,7.3-16.21,11.85-16.21,2.65,0,2.54,2.55,1.8,7.33l-1.91,12.88c-.96,6.55-2.01,14.1-3.07,18.88h19.9c.11-2.89,.74-7.44,1.27-11.44l1.69-11.43c1.38-7.44,7.31-16.21,11.85-16.21,2.65,0,2.54,2.44,2.12,5.77l-4.75,33.31h18.16l6.39-37.97Zm95.08,20.54l-2.12,13.1c-3.28,1.78-9.42,4.33-16.51,4.33-12.07,0-14.5-6.44-12.6-20.1l3.07-21.99h-5.94l1.68-14.23,6.48-.31,2.44-10.33,18.31-6.89-2.33,17.21h12.6c-.42,1.78-1.91,11.55-2.32,14.54h-12.28l-2.75,20.32c-.74,5.22-.31,7.11,3.28,7.11,2.65,0,6.56-1.56,9-2.78h0Zm-69.44,7.08c6.66-.83,11.25-7.25,12.35-13.66l.19-1.72c-2.86-.64-7-1.13-11.01-.64-3.82,.47-7,2.05-8.71,4.35-1.29,1.65-1.94,3.63-1.65,5.98,.43,3.53,4.34,6.22,8.84,5.68Zm-5.67,10.15c-9.4,1.16-15.6-2.58-17.46-11.07-1.17-5.34,.45-11.43,3.28-15.06,3.79-4.75,9.97-7.8,17.52-8.72,6.07-.75,11.19-.38,15.97,.52l.2-.82c.14-1.31,.28-2.62,.08-4.19-.5-4.03-3.67-6.42-11.51-5.46-5.29,.65-10.32,2.56-14.23,4.73l-3.8-11.48c5.3-3.04,11.97-5.35,19.61-6.29,14.59-1.79,24.84,2.86,26.16,13.56,.35,2.84,.39,5.86,.03,8.6-1.87,13.23-3.07,23.18-3.6,29.85-.09,1.03-.08,2.81,.01,5.32l-18.11-.02c.39-1.04,.73-2.46,1.04-4.23,.2-1.17,.35-2.64,.44-4.42-3.83,5.25-9.09,8.37-15.64,9.17h0Z"/></svg>